<svg width="104" height="72" viewBox="0 0 104 72" fill="none" xmlns="http://www.w3.org/2000/svg">
<mask id="mask0" mask-type="alpha" maskUnits="userSpaceOnUse" x="7" y="12" width="49" height="49">
<path fill-rule="evenodd" clip-rule="evenodd" d="M7 12.0078H55.3838V60.3839H7V12.0078Z" fill="white"/>
</mask>
<g mask="url(#mask0)">
<path fill-rule="evenodd" clip-rule="evenodd" d="M45.7352 19.601C44.8284 20.445 44.7774 21.8639 45.6214 22.771C49.024 26.4277 50.8978 31.194 50.8978 36.1919C50.8978 47.0578 42.0576 55.898 31.1918 55.898C20.3259 55.898 11.4857 47.0578 11.4857 36.1919C11.4857 31.019 13.4752 26.1313 17.0877 22.4297C20.6937 18.7346 25.5174 16.6262 30.6707 16.4929C31.9092 16.4606 32.8868 15.4307 32.8551 14.1923C32.8227 12.9538 31.7804 11.9839 30.5544 12.0083C24.2267 12.172 18.304 14.7607 13.877 19.2966C9.44203 23.8409 6.99976 29.8411 6.99976 36.1919C6.99976 49.5315 17.8522 60.3839 31.1918 60.3839C44.5313 60.3839 55.3838 49.5315 55.3838 36.1919C55.3838 30.0561 53.0831 24.2042 48.9051 19.7148C48.0614 18.808 46.6426 18.7567 45.7352 19.601Z" fill="#D23832"/>
</g>
<path fill-rule="evenodd" clip-rule="evenodd" d="M39.8318 18.912C41.2637 18.912 42.424 17.7514 42.424 16.32C42.424 14.8885 41.2637 13.728 39.8318 13.728C38.4003 13.728 37.24 14.8885 37.24 16.32C37.24 17.7514 38.4003 18.912 39.8318 18.912Z" fill="#D23832"/>
<path fill-rule="evenodd" clip-rule="evenodd" d="M66.9602 38.4991C66.5533 38.1625 66.0984 37.8858 65.5967 37.6682C65.0943 37.4507 64.5993 37.2577 64.1109 37.0892C63.7853 36.9771 63.4662 36.858 63.1545 36.7316C62.8422 36.6055 62.5644 36.458 62.3201 36.2899C62.0759 36.1214 61.8791 35.9214 61.73 35.6899C61.5803 35.4583 61.5061 35.1816 61.5061 34.8587C61.5061 34.4099 61.7026 34.0383 62.0962 33.7434C62.4895 33.4491 63.0932 33.3016 63.9076 33.3016C64.3822 33.3016 64.8978 33.3647 65.454 33.4908C66.0103 33.6172 66.5459 33.7997 67.0618 34.0383L67.7336 31.9341C67.1499 31.6255 66.5358 31.394 65.8917 31.2392C65.2471 31.0851 64.5384 31.008 63.765 31.008C62.9103 31.008 62.1778 31.1099 61.5671 31.3134C60.9566 31.5166 60.4546 31.7937 60.0613 32.1443C59.6673 32.4949 59.3793 32.909 59.1961 33.3857C59.0131 33.8628 58.9213 34.3679 58.9213 34.901C58.9213 35.6163 59.0538 36.2198 59.318 36.7106C59.5829 37.202 59.9153 37.6122 60.3157 37.9415C60.7158 38.2714 61.1531 38.538 61.6281 38.7412C62.1027 38.9447 62.5508 39.1167 62.9713 39.2568C63.3239 39.3829 63.6664 39.5058 63.9991 39.6249C64.3314 39.7444 64.6301 39.888 64.8944 40.0565C65.159 40.2246 65.3693 40.4214 65.5255 40.6456C65.6814 40.8702 65.7596 41.1437 65.7596 41.466C65.7596 42.1259 65.4947 42.6132 64.9656 42.9288C64.4367 43.2444 63.7853 43.4023 63.0122 43.4023C62.4014 43.4023 61.7876 43.3043 61.1704 43.1078C60.5525 42.9116 60 42.6727 59.5115 42.3922L58.84 44.6227C59.4098 44.9594 60.0542 45.2224 60.7734 45.4119C61.4922 45.6011 62.3066 45.696 63.2155 45.696C63.9482 45.696 64.6264 45.6116 65.2505 45.4434C65.8748 45.275 66.4141 45.0157 66.8684 44.6648C67.323 44.3145 67.6827 43.8794 67.947 43.3603C68.2116 42.8412 68.344 42.2237 68.344 41.5084C68.344 40.8071 68.2147 40.2144 67.9572 39.73C67.6994 39.2463 67.367 38.8361 66.9602 38.4991Z" fill="black"/>
<path fill-rule="evenodd" clip-rule="evenodd" d="M78.9415 38.2302C78.6661 38.8455 78.4363 39.4474 78.2505 40.035C78.0647 40.6232 77.9373 41.1702 77.8686 41.6761H77.8277C77.7584 41.1702 77.6316 40.6232 77.4458 40.035C77.26 39.4474 77.0295 38.8455 76.7544 38.2302L73.9487 31.872H70.936V45.696H73.5356V38.9274C73.5356 38.6679 73.5256 38.3736 73.505 38.0455C73.4841 37.7174 73.4566 37.3757 73.4222 37.0202C73.3879 36.6645 73.3467 36.3094 73.2986 35.9533C73.2502 35.5982 73.1987 35.2633 73.144 34.9485H73.2058C73.3707 35.5638 73.5428 36.1486 73.7214 36.7021C73.9 37.2558 74.127 37.8611 74.4024 38.5174L76.5895 43.5833H79.1067L81.2935 38.5174C81.5686 37.8611 81.7959 37.2558 81.9746 36.7021C82.1532 36.1486 82.3252 35.5638 82.4904 34.9485H82.5523C82.4973 35.2633 82.4458 35.5982 82.3974 35.9533C82.3493 36.3094 82.3078 36.6645 82.2737 37.0202C82.2394 37.3757 82.2119 37.7174 82.1913 38.0455C82.1707 38.3736 82.1604 38.6679 82.1604 38.9274V45.696H84.76V31.872H81.7475L78.9415 38.2302Z" fill="black"/>
<mask id="mask1" mask-type="alpha" maskUnits="userSpaceOnUse" x="87" y="31" width="10" height="15">
<path fill-rule="evenodd" clip-rule="evenodd" d="M87.5168 31.2823H96.8107V45.5025H87.5168V31.2823Z" fill="white"/>
</mask>
<g mask="url(#mask1)">
<path fill-rule="evenodd" clip-rule="evenodd" d="M90.1542 43.1815V39.4051H96.2875V37.0844H90.1542V33.6033H96.685V31.2823H87.5168V45.5025H96.8108V43.1815H90.1542Z" fill="black"/>
</g>
<path fill-rule="evenodd" clip-rule="evenodd" d="M30.1202 25.824C30.0921 25.824 30.0693 25.847 30.0693 25.8754V39.5785C30.0693 40.4837 29.689 41.3541 29.0258 41.9666C28.3546 42.5869 27.4816 42.8818 26.5746 42.7989C24.9483 42.6496 23.6746 41.1879 23.6746 39.4716V31.798C23.6746 31.7697 23.6518 31.7466 23.6238 31.7466H20.8748C20.8468 31.7466 20.824 31.7697 20.824 31.798V39.4174C20.824 41.033 21.4215 42.5729 22.5066 43.7543C23.6022 44.9463 25.0734 45.6346 26.6498 45.6919C26.725 45.6947 26.7999 45.696 26.8744 45.696C28.4471 45.696 29.9291 45.0916 31.0681 43.98C32.2623 42.8148 32.92 41.2515 32.92 39.5785V25.8754C32.92 25.847 32.8972 25.824 32.8691 25.824H30.1202Z" fill="black"/>
<path fill-rule="evenodd" clip-rule="evenodd" d="M26.7587 23.232H24.3933C24.3661 23.232 24.344 23.2541 24.344 23.2813V25.024H22.6013C22.5741 25.024 22.552 25.0461 22.552 25.0733V27.4387C22.552 27.4659 22.5741 27.488 22.6013 27.488H24.344V29.2307C24.344 29.2579 24.3661 29.28 24.3933 29.28H26.7587C26.7859 29.28 26.808 29.2579 26.808 29.2307V27.488H28.5507C28.5779 27.488 28.6 27.4659 28.6 27.4387V25.0733C28.6 25.0461 28.5779 25.024 28.5507 25.024H26.808V23.2813C26.808 23.2541 26.7859 23.232 26.7587 23.232Z" fill="black"/>
<path fill-rule="evenodd" clip-rule="evenodd" d="M36.0344 35.3494C36.1736 35.1068 36.3632 34.8837 36.5999 34.685C36.7892 34.5133 37.0126 34.3684 37.2688 34.2521C37.2831 34.2457 37.2971 34.239 37.3111 34.2325C37.3322 34.2223 37.3537 34.212 37.3768 34.2027C37.3849 34.1992 37.3927 34.196 37.3992 34.1934L37.4005 34.196L37.4353 34.1829C38.0298 33.9579 38.6776 33.9134 39.3013 34.0512C39.7332 34.1576 41.1423 34.6437 41.1439 36.439V45.696H44.152V36.0272C44.0535 34.494 43.498 33.5419 43.1757 33.1112L43.1751 33.1103C42.1322 31.7938 40.4158 31.008 38.583 31.008C36.6386 31.008 34.8077 31.9133 33.8038 33.3705L33.784 33.3993L36.0097 35.3933L36.0344 35.3494Z" fill="black"/>
</svg>
